<svg width="205" height="205" viewBox="0 0 205 205" fill="none" xmlns="http://www.w3.org/2000/svg">
<circle cx="102.5" cy="102.5" r="102.5" fill="black"/>
<path d="M186.065 160.114C186.088 159.916 186.556 159.205 186.215 159.451C185.822 159.735 185.375 160.325 185.886 159.595C186.202 159.143 186.742 158.585 185.966 159.249C184.973 160.099 185.511 158.369 185.616 157.76C185.787 156.773 185.279 158.52 185.347 157.346C185.365 157.027 185.288 157.128 185.097 156.981C184.848 156.789 186.046 155.399 186.046 155.049C186.046 154.68 185.579 155.662 185.247 155.847C184.798 156.097 185.231 155.329 185.267 155.251C185.355 155.061 186.059 152.579 185.447 152.579C185.256 152.579 184.261 153.396 184.209 153.329C184.137 153.237 184.664 151.88 184.758 151.666C185.158 150.746 185.779 149.895 186.345 149.062C186.544 148.769 185.419 150.115 185.726 149.927C186.296 149.578 186.343 149.336 185.706 149.898C184.935 150.578 185.167 149.57 185.167 149.004C185.167 148.194 185.317 147.669 184.818 148.591C184.77 148.678 184.623 148.929 184.638 148.831C184.664 148.654 184.881 148.163 184.778 148.312C183.83 149.681 185.279 147.053 184.808 147.313C184.68 147.383 185.296 145.936 185.227 145.804C185.182 145.717 185.157 145.272 184.878 145.342C184.398 145.464 184.129 145.892 184.229 145.237C184.325 144.602 184.339 144.255 184.658 143.641C184.737 143.489 185.815 141.628 185.127 142.469C184.858 142.797 184.553 143.047 184.209 143.295C183.849 143.555 184.707 142.548 184.788 142.123C184.868 141.697 184.7 141.471 184.638 141.142C184.601 140.944 184.837 140.078 184.628 140.354C184.295 140.795 183.81 141.101 183.37 141.431" stroke="white" stroke-width="4" stroke-linecap="round"/>
<path d="M183.974 138.815C184.427 138.714 185.444 136.649 183.587 138.007C182.882 138.523 183.457 136.839 183.055 136.607C182.612 136.352 184.428 134.408 184.302 133.73C184.226 133.323 185.079 132.287 184.788 132.587C184.228 133.163 184.351 132.855 184.128 132.237C183.986 131.841 183.682 131.643 183.851 131.217C184.051 130.713 184.993 129.383 184.605 129.771C184.108 130.27 183.503 130.32 183.684 129.436C183.723 129.242 184.269 127.276 183.895 127.901C183.81 128.043 183.197 128.893 183.131 128.362C183.093 128.053 183.191 127.394 182.714 127.445C182.403 127.478 182.584 127.165 182.352 127.026" stroke="white" stroke-width="4" stroke-linecap="round"/>
<path d="M181.748 125.361C182.615 125.396 180.442 126.567 181.131 125.779C181.891 124.909 181.595 124.302 182.151 123.28C182.733 122.211 181.587 123.427 181.314 123.708C180.923 124.112 181.301 123.23 181.274 123.207C180.99 122.959 180.269 123.66 180.227 122.915C180.197 122.381 180.299 121.875 180.11 121.352C180.006 121.063 179.595 120.735 179.608 120.427C179.613 120.299 180.032 119.994 179.717 120.201C179.609 120.271 178.777 120.752 179.232 120.335C180.149 119.495 179.618 120.172 179.523 119.039C179.467 118.36 179.792 117.413 178.812 117.837C178.095 118.148 178.693 117.067 178.538 116.71C178.2 115.935 179.502 114.75 179.088 114.443C178.733 114.18 178.919 113.754 178.37 113.914C178.206 113.962 176.966 114.56 176.979 114.224C176.998 113.754 177.387 113.367 177.392 112.894C177.397 112.488 176.882 112.623 176.879 112.238C176.878 112.154 177.303 110.563 176.942 110.663C176.066 110.906 176.174 110.459 176.301 109.695C176.391 109.156 176.463 109.031 175.958 109.297C175.487 109.544 176.222 108.645 176.265 108.597C177.311 107.437 175.439 108.75 175.084 107.925C174.971 107.664 175.049 106.845 174.741 106.747C174.433 106.649 174.09 106.842 174.065 106.412C174.038 105.947 174.151 105.472 174.101 105.009C174.078 104.789 172.443 105.544 172.199 105.625C171.828 105.749 172.222 104.413 172.075 103.976C171.919 103.514 170.792 105.104 171.202 103.575C171.307 103.184 173.493 103.014 173.198 103.165C172.772 103.381 173.263 101.528 170.573 103.059C171.629 100.902 170.886 102.47 171.668 101.029C171.77 100.842 172.656 100.206 171.668 99.9099C170.989 99.7062 170.439 100.94 170.716 99.7371C170.766 99.5208 171.098 98.944 171.1 98.8772C171.118 98.4477 171.088 98.2736 170.536 98.4891C170.354 98.5602 170.905 97.8925 170.955 97.7652C171.102 97.3903 170.756 97.3917 170.471 97.3803C169.389 97.3369 171.336 95.9918 171.553 95.8078C171.761 95.6318 171.781 94.8358 171.373 94.8195C171.092 94.8082 170.635 94.2878 170.586 94.028C170.585 94.0276 170.492 94.2936 171.116 94.5014C171.7 94.6957 170.494 94.443 170.399 94.4341C169.726 94.3709 171.002 93.7754 171.119 93.4242C171.433 92.4797 168.922 92.609 169.985 92.3014C170.996 92.0091 170.269 91.2269 169.679 90.981C168.975 90.6879 171.106 90.3518 170.412 90.1447C169.194 89.782 169.15 90.4435 170.155 89.5765C170.892 88.94 169.758 88.9061 169.739 88.4826C169.717 88.019 169.402 88.3112 169.102 88.4186C168.709 88.559 169.791 87.5977 169.856 87.5447C170.406 87.1009 171.008 86.5728 169.886 86.7956C169.662 86.8403 169.041 87.2235 169.424 86.8733C170.934 85.4899 168.246 86.5013 168.895 85.6017C169.036 85.4072 169.873 84.6768 169.822 84.4076C169.791 84.2427 169.183 84.6053 169.215 84.6141C169.309 84.6409 169.199 84.3899 169.225 84.3452C169.512 83.8672 170.14 83.5457 170.513 83.1272C171.139 82.4248 169.276 83.8281 170.059 82.9936C170.389 82.6413 169.314 82.6201 169.215 82.6135C168.42 82.5606 168.372 82.5153 168.528 81.7972C168.569 81.6103 168.862 80.7819 168.613 80.6848C168.337 80.5775 169.112 80.1879 169.121 79.9742C169.122 79.954 168.068 80.491 167.95 80.5332C167.506 80.6907 168.617 79.884 168.89 79.5129C169.246 79.0289 168.425 79.2839 168.171 79.2532C167.534 79.1763 168.48 78.27 168.627 78.0884C168.753 77.9337 169.607 77.0598 169.094 76.9144C168.512 76.7494 168.542 76.6399 169.042 76.2198C169.972 75.4376 167.265 76.5563 167.371 76.0277C167.399 75.887 167.766 75.2027 167.637 75.1246C167.297 74.9196 167.139 74.959 167.443 74.482C168.298 73.1384 166.92 74.2241 167.13 73.3152C167.287 72.6355 167.736 72.1807 168.214 71.6947C168.531 71.3732 167.883 71.6125 167.737 71.6467C167.398 71.7253 168.028 71.5455 168.122 71.2485C168.257 70.8226 167.203 70.9569 166.977 70.914C166.681 70.8581 166.937 69.5706 166.543 69.2615C165.307 68.2915 167.584 67.1162 168.222 66.2701C168.529 65.8623 167.86 66.1505 167.736 66.1833C167.125 66.3438 167.255 66.3021 167.353 66.014C167.405 65.8628 166.438 66.0356 166.354 66.022C165.863 65.943 166.343 65.1048 166.467 64.9301C166.881 64.35 166.93 64.2053 166.177 64.2067C165.778 64.2074 166.675 63.312 166.783 63.0479C166.942 62.6566 167.33 61.7617 166.675 61.7354C166.02 61.7092 166.222 59.636 165.64 60.6551" stroke="white" stroke-width="4" stroke-linecap="round"/>
<path d="M165.759 60.3698C165.614 59.8699 165.343 59.3684 165.018 58.9633C164.744 58.6214 165.465 57.4417 164.788 57.8093C164.441 57.998 163.042 59.6663 163.666 58.8149C164.7 57.4037 162.065 59.2039 161.682 58.6394C161.398 58.2215 161.818 57.0208 162.076 56.664C162.197 56.4967 163.017 55.3353 162.911 55.1711C162.525 54.5685 161.972 56.4291 162.442 54.877C162.603 54.3426 160.593 55.5034 161.061 54.3463C161.164 54.0926 161.278 53.6937 161.334 53.5668C161.623 52.9195 160.611 54.1764 160.446 54.3044C160.226 54.475 160.52 53.4838 160.524 53.4613C160.64 52.7858 159.783 53.5617 159.515 53.6737C158.173 54.2356 159.571 52.3561 159.75 52.0447C159.899 51.786 159.325 51.9539 159.248 52.4301C159.23 52.5432 159.214 52.8181 159.032 52.6529C158.792 52.4349 158.815 51.5856 158.569 51.8066C158.278 52.0673 156.96 54.3321 157.88 52.5865C158.504 51.4032 157.656 52.4874 157.587 52.8314" stroke="white" stroke-width="4" stroke-linecap="round"/>
<path d="M156.325 52.2811C156.397 51.7248 157.792 54.6495 157.123 52.8097C156.821 51.9792 156.428 52.5547 156.255 53.1461C156.018 53.9581 156.176 54.3519 155.496 53.3863C154.249 51.6142 154.959 53.5057 155.027 54.2225C155.054 54.5035 155.165 55.0349 155.067 55.3181C154.994 55.5281 154.934 54.8877 154.807 54.703C154.242 53.8778 154.355 54.2732 153.949 54.6646C153.78 54.8273 153.047 53.9663 152.941 53.8765C152.485 53.4927 153.183 55.0659 153.13 55.0586C152.874 55.0234 152.769 54.5624 152.461 54.5973C152.147 54.6329 151.822 55.2367 151.683 55.4623C151.438 55.8601 151.432 56.3077 151.034 55.7602C150.861 55.522 150.968 56.259 150.934 56.3561C150.838 56.6326 150.59 56.8361 150.435 57.0865C150.123 57.5906 150.001 57.4729 149.596 57.1634C149.462 57.0605 148.729 56.3858 149.137 56.779" stroke="white" stroke-width="4" stroke-linecap="round"/>
<path d="M149.499 57.8174C149.475 58.0746 149.339 58.7983 148.95 58.4709C148.819 58.3602 148.532 57.8401 148.321 57.8943C147.848 58.0158 147.482 59.3258 147.353 59.6531C147.272 59.8585 146.641 62.3088 146.225 62.0654C146.037 61.9553 144.764 60.6393 144.688 60.7391C144.346 61.1877 144.857 62.8181 144.548 62.988C144.223 63.1669 144.002 62.5775 143.849 62.4306C143.713 62.2999 143.851 63.4147 143.909 63.5551C143.999 63.7727 143.258 62.8143 143.07 62.9496C142.926 63.0539 142.831 63.5751 142.691 63.7377C142.45 64.0174 142.11 64.3484 141.773 64.5258C141.436 64.7025 141.226 64.244 141.054 64.0548C140.545 63.4954 141 64.0907 141.044 64.4489C141.091 64.832 140.653 65.5205 140.515 65.8905C140.33 66.3844 139.787 65.2215 139.656 65.0255C139.225 64.3794 139.804 65.597 139.257 65.9482" stroke="white" stroke-width="4" stroke-linecap="round"/>
<path d="M138.897 68.5427C138.785 68.007 137.819 66.7277 137.819 67.2741C137.819 67.851 137.653 68.4058 137.379 68.9176C137.015 69.5982 136.584 68.7238 136.211 68.389C134.776 67.0989 136.226 69.0242 135.812 69.0906C135.663 69.1145 135.178 68.2456 135.133 68.5908C135.04 69.3089 135.199 70.039 135.013 70.7532C134.67 72.0755 133.563 70.7044 133.187 70.0997C133.076 69.9224 133.185 70.5845 133.366 70.6956C133.835 70.9827 134.103 71.8611 134.185 72.3487C134.327 73.1964 134.061 72.706 133.646 72.3487C132.877 71.6882 132.41 70.9845 133.007 72.3487C133.133 72.6361 132.357 71.7736 132.438 72.2814C132.693 73.8788 131.79 71.8003 131.719 72.1084C131.624 72.5191 131.643 73.6814 130.91 73.0406C130.398 72.5926 131.176 74.7014 130.441 74.1267C130.151 73.8998 130.065 73.5338 129.812 73.2905C129.547 73.0355 130 73.9905 130.052 74.3477C130.208 75.4223 128.754 73.8225 128.874 74.3285C129.122 75.3728 129.739 75.687 128.554 75.1166C128.426 75.0546 128.73 75.3386 128.794 75.4626C128.879 75.6263 128.619 75.4972 128.475 75.4626" stroke="white" stroke-width="4" stroke-linecap="round"/>
<path d="M127.217 75.8092C127.298 75.8919 127.576 76.3616 127.576 76.1071C127.576 76.0043 127.632 75.1976 127.357 75.3671C126.58 75.8458 126.935 76.5931 126.319 75.4055C126.155 75.0904 125.895 75.9914 125.61 76.2128C125.425 76.3569 125.119 76.6148 124.881 76.4243C124.2 75.8782 122.594 77.8942 121.647 77.7698C121.511 77.752 120.992 77.1554 120.948 77.2412C120.924 77.2865 120.897 77.9461 120.788 77.9043C120.69 77.8665 121.202 77.0719 121.257 76.9913C121.296 76.9355 121.291 77.2938 121.287 77.3661C121.256 77.9159 120.777 77.2154 120.748 76.9625C120.726 76.7683 119.331 78.0032 118.782 77.6064C118.566 77.4506 118.644 77.2113 118.732 77.5391C118.758 77.6356 118.8 78.1579 118.682 77.7698C118.441 76.9825 118.532 78.2651 117.793 78.3945C117.348 78.4724 117.154 78.0386 117.154 77.6929C117.154 76.5137 117.097 77.3092 116.545 77.9524C116.197 78.359 115.974 78.6401 115.807 77.962C115.567 76.9939 115.911 78.0104 115.517 78.308C114.694 78.931 114.89 78.1251 114.808 77.5776C114.768 77.3068 114.369 77.8796 114.279 77.9428C113.996 78.1432 113.804 78.0415 113.561 77.8851" stroke="white" stroke-width="4" stroke-linecap="round"/>
<path d="M109.787 78.2295C109.973 78.2295 109.803 78.0336 109.817 77.8643C109.84 77.6052 110.237 76.9059 110.127 77.1435C109.651 78.174 108.381 78.9342 108.19 77.3741C108.031 76.0685 108.569 76.2823 108.001 77.4222C107.364 78.698 107.423 76.6916 106.872 76.9897C106.298 77.3008 102.367 79.647 102.789 77.8162C102.866 77.4846 102.965 78.9609 103.149 78.1622C103.223 77.8414 102.847 79.397 102.33 79.0656C101.937 78.8133 101.806 77.8417 101.721 77.4318C101.667 77.1692 101.61 77.6566 101.492 77.8066C100.478 79.0876 100.838 77.6716 100.304 77.6144C100.202 77.6035 100.09 78.0914 99.9045 77.9027C99.7102 77.7047 99.8079 76.9245 99.6848 77.4414C99.5556 77.9845 97.6843 80.0041 97.4287 78.883C97.3638 78.5986 97.5908 77.2369 97.7082 77.576C97.9069 78.1498 96.9796 78.4091 97.3688 77.4606C97.4653 77.2255 98.2049 76.1883 98.1674 76.3073C97.886 77.2016 96.8142 77.5724 96.0511 77.9796C95.8169 78.1046 95.3807 78.5589 95.1925 78.2295C95.0385 77.9599 94.7653 77.2094 94.4339 77.1339C93.6216 76.9486 93.149 78.2646 92.3574 77.8835" stroke="white" stroke-width="4" stroke-linecap="round"/>
<path d="M89.6604 76.5001C90.1062 76.5538 88.7922 77.287 88.6821 77.3459C88.0164 77.7019 88.2887 77.1384 88.123 76.6827C87.7189 75.571 87.1018 77.7328 86.4858 76.8077C86.1948 76.3705 86.2058 76.5082 85.8869 76.6347C85.6872 76.7138 85.5275 75.9078 85.5275 76.1157C85.5275 76.6936 85.0581 77.446 84.4893 77.6726C83.9453 77.8893 84.2424 76.8453 83.9702 76.75C83.6249 76.6291 83.1983 77.4467 82.6724 77.2498C82.2277 77.0833 82.2159 76.3935 81.7939 76.231C81.6818 76.1878 81.8513 75.7941 81.6741 75.7312C81.5095 75.6728 80.3887 76.5738 80.0769 76.6539C78.9743 76.9369 80.2979 75.3389 79.8373 76.0964C79.7814 76.1883 79.0556 77.2114 78.8989 76.7212C78.7931 76.3902 79.0437 75.9739 78.6992 75.8081" stroke="white" stroke-width="4" stroke-linecap="round"/>
<path d="M79.0396 75.5937C79.1544 75.6157 78.6024 76.0683 78.5273 76.0611C78.0714 76.0174 77.9996 74.9713 77.7323 74.7197C77.62 74.614 77.2908 75.8375 77.1316 75.9189C76.7568 76.1105 76.9868 74.8603 76.2041 75.4412C75.9493 75.6304 74.811 76.7449 74.5081 76.3965C74.034 75.851 74.1919 74.8538 73.7043 74.2929C73.3519 73.8875 73.8099 76.5426 73.6248 76.0103C73.436 75.4673 73.3156 74.9091 73.3156 74.3234C73.3156 73.5721 73.1277 73.8622 72.6796 74.2725C72.1206 74.7845 72.1359 74.3121 72.3263 73.7644C72.5028 73.2567 72.0613 73.67 72.0613 73.6526C72.0613 73.3556 72.7255 72.6447 72.2115 72.9108C71.672 73.1901 69.0847 74.658 69.9766 73.1343C70.3183 72.5507 70.5412 72.7501 70.86 72.4027C71.0191 72.2292 71.0885 71.9421 71.2486 71.7523C71.3636 71.6159 71.7936 71.3864 71.6285 71.3864C71.4268 71.3864 71.3758 71.5693 71.1691 71.5693C70.8942 71.5693 70.9555 71.0467 70.8246 71.1425C69.8946 71.8234 71.0407 70.6075 71.3016 70.3194C72.1358 69.398 70.7398 70.6901 70.489 70.797C70.1401 70.9456 70.3019 69.4829 70.2946 69.232C70.2767 68.6138 68.7742 70.3402 68.475 69.7807C68.1278 69.1317 69.4792 69.146 68.4043 69.5877C68.2583 69.6476 68.1473 68.4747 67.998 68.236C67.7904 67.9044 67.4512 68.0218 67.4326 67.606C67.3731 66.2699 66.6479 68.6413 66.3638 68.2056C66.2219 67.9879 67.0708 66.404 66.5405 66.6609C65.9051 66.9687 65.8604 67.0839 65.8426 66.2239C65.8336 65.7851 65.6591 65.5385 65.295 65.8377C64.2811 66.6709 65.1124 65.9169 64.5706 65.543C64.1644 65.2625 64.3864 64.4132 64.0848 64.0085C64.0699 63.9884 63.3396 64.4353 63.1396 64.4353" stroke="white" stroke-width="4" stroke-linecap="round"/>
<path d="M63.1415 63.1351C63.1415 64.2772 61.7355 64.13 61.1817 63.3085C60.6606 62.5355 61.0439 61.2397 59.7227 62.0079C59.0438 62.4027 58.6935 62.6678 58.8735 61.7478C58.9732 61.2379 59.2959 61.0581 59.5268 60.6495C59.65 60.4314 60.0808 59.1699 59.9187 59.3586C59.5508 59.7869 58.9593 60.352 58.3618 60.5147C57.9176 60.6356 57.6957 59.5385 57.5016 59.3008C57.2406 58.981 57.0661 59.1568 57.0661 58.6553C57.0661 58.6137 56.1586 59.4422 55.7813 59.4357C55.2773 59.4269 54.9561 57.1928 55.0627 56.8152C55.1508 56.5037 54.1537 57.8146 54.355 57.5474C54.7263 57.0546 53.8713 57.9251 53.778 58.0291C53.1346 58.746 53.2428 56.2706 53.386 55.8904C53.4683 55.672 54.349 54.2418 54.0066 54.6861C53.9332 54.7815 53.3584 55.8333 53.3425 55.4665C53.3298 55.1749 53.3413 53.4271 52.515 53.636C52.127 53.7341 51.3118 54.7368 50.9145 54.4934C50.5402 54.2642 50.8118 53.6897 50.5552 53.4626C50.4065 53.3311 50.4027 53.3196 50.4027 52.9424C50.4027 52.7146 49.9025 53.5832 49.8584 53.7324C49.6334 54.4922 49.0682 53.435 48.7587 53.1254C48.1946 52.5612 48.1265 53.3877 47.9639 53.2699C47.4472 52.8959 46.12 51.5613 46.592 51.979C46.9377 52.2849 46.6196 52.7578 46.4831 53.0772C46.2444 53.636 46.2916 54.5072 45.5577 54.0021C45.2946 53.8211 43.6373 52.8301 44.4798 53.636C44.8162 53.9579 44.8662 54.3588 44.6866 54.7825C44.5544 55.0945 44.0732 54.7936 44.1749 54.9848C44.7539 56.0735 43.321 55.0603 43.4345 55.3701C43.6649 55.9987 43.8576 56.0245 42.9881 55.6013C42.4824 55.3552 42.5096 55.5998 42.7595 55.9867C43.0851 56.4909 43.0131 57.8222 42.2151 57.6245C41.6906 57.4945 42.5475 58.4632 42.6179 58.5879C42.8336 58.9695 42.1153 58.6438 42.2151 59.0118C42.5238 60.1498 40.3301 58.5261 41.3005 59.9752C41.5602 60.363 41.6072 60.9753 41.7905 61.401C42.0925 62.1026 42.4985 62.5713 41.4747 62.1717C40.8386 61.9234 41.5741 63.2821 41.6598 63.4337C42.0416 64.1094 40.9819 63.6434 40.4948 63.6553C39.8496 63.6712 41.3194 66.3186 41.4529 66.6322C41.5047 66.7538 42.4991 68.688 41.8885 68.4338C39.6404 67.4977 41.8497 69.5226 40.7126 69.5513C40.4847 69.5571 39.2992 69.2225 39.2645 69.4068C39.2181 69.6529 39.8124 70.377 39.2754 70.4184C38.2801 70.4949 39.879 73.9772 39.5802 74.638C39.5561 74.6914 39.333 74.1809 39.2318 74.6284C38.9758 75.761 39.2296 77.2431 38.6439 78.2797C38.4795 78.5706 37.6554 77.8311 37.5115 77.7402C37.4547 77.7043 38.0716 78.9887 38.4697 79.2431C38.6696 79.3708 38.2154 78.7614 37.9688 78.7614C37.5897 78.7614 38.3825 79.8827 38.4043 79.9174C38.9162 80.7327 38.6943 80.4762 37.7837 80.4762C37.1282 80.4762 36.7882 80.4749 36.3792 80.9964C35.9452 81.5499 36.0915 82.959 35.1162 82.3837" stroke="white" stroke-width="4" stroke-linecap="round"/>
<path d="M19.6807 159.723C20.6237 159.723 19.5672 159.606 19.2414 159.464C19.0995 159.402 18.8227 159.243 19.1416 159.204C19.5497 159.155 18.7174 158.358 18.5626 158.243C18.1457 157.934 20.1895 157.128 19.4111 157.128C19.1227 157.128 18.9164 156.863 18.6225 156.782C18.1788 156.66 19.7306 156.133 19.9003 156.013C20.2405 155.773 19.6388 155.641 19.7206 155.36C19.8398 154.95 20.2056 155.004 19.8204 154.533C19.4182 154.042 19.1862 154.216 20.0001 154.187C20.5942 154.166 19.7922 153.434 19.6807 153.322C19.2016 152.843 18.9231 152.675 19.1216 152.102C19.189 151.907 18.9658 151.332 19.1715 151.266C19.6772 151.103 19.629 151.242 19.6906 150.708C19.7043 150.59 19.8669 149.599 19.9702 149.632C20.1605 149.693 20.5305 149.912 20.2197 149.613C19.7118 149.123 19.539 148.996 19.461 148.363C19.4474 148.252 19.2477 146.792 19.4211 146.864C19.9116 147.066 20.3448 147.204 20.9086 147.258C21.7685 147.341 19.9617 146.036 20.3994 145.614C20.4083 145.606 21.3788 145.727 21.5375 145.672C21.8683 145.557 21.0067 145.007 20.9385 144.942C20.5698 144.587 20.3087 144.146 20.04 143.721C19.4635 142.809 20.289 143.704 20.3894 143.365C20.485 143.044 20.5379 143.189 20.8387 143.106C21.0504 143.048 20.9409 142.301 20.9285 142.164C20.9098 141.956 20.6124 141.431 20.659 141.251C20.6887 141.136 21.5359 141.654 21.4376 141.386C21.0721 140.388 20.9385 139.742 20.9385 138.618" stroke="white" stroke-width="4" stroke-linecap="round"/>
<path d="M21.4786 137.926C21.893 138.076 21.7494 137.16 21.8979 136.85C22.1196 136.387 20.1105 133.182 21.9279 134.543C23.7627 135.917 21.4919 133.808 21.3788 133.198C21.3469 133.025 21.5772 133.264 21.6583 133.255C22.0419 133.214 22.172 132.656 22.2972 132.381C22.4356 132.076 22.63 131.772 22.996 131.708C23.0679 131.695 23.382 131.703 23.3454 131.689C23.1891 131.629 22.9789 131.342 23.3055 131.381C23.8002 131.441 24.8562 132.474 24.6332 132.044C24.6102 132 22.4023 129.469 23.016 129.469C23.6095 129.469 22.7162 127.288 23.1358 127.546C24.154 128.174 23.3208 127.435 23.1358 126.624C23.0829 126.392 25.0189 127.881 23.8146 126.335C23.6826 126.166 23.0467 125.487 23.1258 125.221C23.2236 124.891 23.7892 125.51 23.8146 125.009C23.9009 123.305 24.4497 124.93 24.7131 124.423C24.948 123.971 25.6036 124.848 25.332 124.25C24.9207 123.345 24.8078 122.646 25.7912 123.356C26.3124 123.732 25.7284 123.079 25.6115 122.952C24.9978 122.29 25.2488 121.198 25.4318 120.406C25.4808 120.194 25.5662 119.026 26.0009 119.214C26.5451 119.45 26.9894 120.05 27.4084 120.454" stroke="white" stroke-width="4" stroke-linecap="round"/>
<path d="M26.9332 117.256C26.903 117.041 26.4829 116.001 26.556 116.027C26.9721 116.172 27.0425 113.503 27.1298 113.07C27.1912 112.766 28.0814 113.628 28.2671 113.722C28.7528 113.968 27.6653 111.394 27.372 111.079C26.9235 110.597 28.3542 112.165 28.9941 112.168C30.0213 112.172 29.5156 110.401 29.4556 109.711C29.3871 108.925 29.7404 109.237 29.7402 108.565C29.7402 108.412 29.7334 107.564 30.0221 107.626C30.1132 107.646 30.2633 107.971 30.3363 107.893C30.7207 107.482 30.1397 106.161 30.8279 106.141C31.0571 106.135 32.0999 107.222 31.9605 106.739C31.8663 106.413 30.8147 103.723 31.3007 104.054C31.4732 104.171 32.2098 104.829 32.1698 104.37C32.0424 102.906 31.9869 104.103 32.8053 104.031C32.9375 104.02 32.6794 101.666 33.898 102.739" stroke="white" stroke-width="4" stroke-linecap="round"/>
<path d="M34.8556 100.546C34.7914 100.492 34.4768 100.35 34.7158 100.383C35.0175 100.425 35.919 100.546 35.6142 100.546C35.4009 100.546 34.2605 100.657 34.576 100.258C34.992 99.7325 35.5174 99.4183 35.3747 98.6627C35.2363 97.9299 33.9987 98.2791 35.1351 97.6824C36.1024 97.1744 33.0253 97.2786 33.8173 97.2595C34.9535 97.2322 34.319 96.8815 34.7158 96.2023C35.0738 95.5896 37.1206 93.9918 35.2549 93.9918C35.1567 93.9918 34.8028 94.0909 35.3347 93.5978C35.5408 93.4067 36.4227 92.7035 36.2432 92.3291C36.0047 91.8316 35.2634 92.0879 34.9055 91.8582C34.4237 91.549 36.7725 89.854 35.3946 90.2051C35.2761 90.2353 34.8356 90.614 34.8955 90.6088C35.2868 90.5745 35.949 90.007 36.1733 89.7246C36.425 89.4077 35.9875 89.5656 35.8838 89.4459C35.7624 89.3056 36.469 88.3778 36.5427 88.1964C36.7111 87.782 36.6077 87.7447 36.1933 87.7447C35.4724 87.7447 35.833 87.2612 36.0136 86.8029C36.1929 86.3477 36.4065 85.8966 36.5726 85.4381C36.6161 85.3181 36.6538 85.169 36.4728 85.169C36.4191 85.169 36.2837 85.2663 36.333 85.2459C36.6207 85.1272 36.9292 83.4414 36.9719 83.2276C37.1344 82.4142 36.073 82.9845 36.6924 82.3434C37.4378 81.572 37.579 81.1709 36.4728 81.1709" stroke="white" stroke-width="4" stroke-linecap="round"/>
<ellipse cx="134.102" cy="138.867" rx="25.8587" ry="31.2384" transform="rotate(6.24927 134.102 138.867)" fill="white"/>
<ellipse cx="21.2989" cy="22.9499" rx="21.2989" ry="22.9499" transform="matrix(0.996641 0.0818934 -0.144405 0.989519 110.91 119.285)" fill="black"/>
<ellipse cx="5.09459" cy="4.35666" rx="5.09459" ry="4.35666" transform="matrix(-0.487832 0.872937 0.901887 0.431973 118.539 146.117)" fill="white"/>
<ellipse cx="66.249" cy="138.868" rx="25.8587" ry="31.2384" transform="rotate(6.24927 66.249 138.868)" fill="white"/>
<ellipse cx="21.2989" cy="22.9499" rx="21.2989" ry="22.9499" transform="matrix(0.996641 0.0818934 -0.144405 0.989519 43.0576 119.286)" fill="black"/>
<ellipse cx="5.24239" cy="4.35666" rx="5.24239" ry="4.35666" transform="matrix(-0.487832 0.872937 0.901887 0.431973 50.8311 145.859)" fill="white"/>
</svg>
